# xmcd CD database file
#
# Track frame offsets:
#	150
#	7008
#	21826
#	39800
#	53411
#	68388
#	83841
#	98559
#	114368
#	128281
#	146426
#	164710
#	182351
#
# Disc length: 2652 seconds
#
# Revision: 0
# Processed by: cddbd v1.4PL0 Copyright (c) Steve Scherf et al.
# Submitted via: CDex 1.50beta10
#
DISCID=8c0a5a0d
DTITLE=Toby Keith - Unleashed
DYEAR=1900
DGENRE=Country
TTITLE0=Live Introduction By Toby Of "
TTITLE1=Courtesy Of The Red, White And
TTITLE2=Who's Your Daddy
TTITLE3=Good To Go To Mexico
TTITLE4=It's All Good
TTITLE5=Beer For My Horses
TTITLE6=Losing My Touch
TTITLE7=Huckleberry
TTITLE8=It Works For Me
TTITLE9=Ain't It Just Like You
TTITLE10=Rock You Baby
TTITLE11=Rodeo Moon
TTITLE12=That's Not How It is
EXTD=
EXTT0=
EXTT1=
EXTT2=
EXTT3=
EXTT4=
EXTT5=
EXTT6=
EXTT7=
EXTT8=
EXTT9=
EXTT10=
EXTT11=
EXTT12=
PLAYORDER=
